<?xml version="1.0" standalone="no"?>
<svg style="background: #fff" xmlns="http://www.w3.org/2000/svg" xmlns:xlink="http://www.w3.org/1999/xlink" version="1.1" width="2011px" height="1794px" viewBox="-0.5 -0.5 2011 1794"><defs><style>* {margin: 0px; padding: 0px;}</style></defs><g><path d="M 131.5 55.5 L 181.5 55.5 L 224.13 55.5" fill="none" stroke="#000000" stroke-miterlimit="10" pointer-events="none"/><path d="M 229.38 55.5 L 222.38 59 L 224.13 55.5 L 222.38 52 Z" fill="#000000" stroke="#000000" stroke-miterlimit="10" pointer-events="none"/><path d="M 40.6 14.5 L 91.4 14.5 C 113.54 14.5 131.5 32.41 131.5 54.5 C 131.5 76.59 113.54 94.5 91.4 94.5 L 40.6 94.5 C 18.46 94.5 0.5 76.59 0.5 54.5 C 0.5 32.41 18.46 14.5 40.6 14.5 Z" fill="#ffdc8c" stroke="#ddab38" stroke-width="2" stroke-miterlimit="10" pointer-events="none"/><g transform="translate(32.5,40.5)"><foreignObject style="overflow:visible;" pointer-events="all" width="63" height="24"><div xmlns="http://www.w3.org/1999/xhtml" style="display: inline-block; font-size: 20px; font-family: Helvetica; color: rgb(0, 0, 0); line-height: 1.2; vertical-align: top; width: 64px; white-space: nowrap; overflow-wrap: normal; font-weight: bold; text-align: center;"><div xmlns="http://www.w3.org/1999/xhtml" style="display:inline-block;text-align:inherit;text-decoration:inherit;white-space:normal;"><font face="pmingliu, serif" style="font-size: 20px"><span style="font-size: 20px">START</span></font></div></div></foreignObject></g><path d="M 1629 84.5 L 1629 210.5 L 1629 247.13" fill="none" stroke="#ff8000" stroke-miterlimit="10" pointer-events="none"/><path d="M 1629 252.38 L 1625.5 245.38 L 1629 247.13 L 1632.5 245.38 Z" fill="#ff8000" stroke="#ff8000" stroke-miterlimit="10" pointer-events="none"/><ellipse cx="1629.5" cy="54.5" rx="30" ry="30" fill="#98e1f9" stroke="#388aa6" pointer-events="none"/><g transform="translate(1611.5,41.5)"><foreignObject style="overflow:visible;" pointer-events="all" width="33" height="22"><div xmlns="http://www.w3.org/1999/xhtml" style="display: inline-block; font-size: 20px; font-family: Helvetica; color: rgb(0, 0, 0); line-height: 1.2; vertical-align: top; width: 34px; white-space: nowrap; overflow-wrap: normal; font-weight: bold; text-align: center;"><div xmlns="http://www.w3.org/1999/xhtml" style="display:inline-block;text-align:inherit;text-decoration:inherit;white-space:normal;"><font style="font-size: 20px">yes</font></div></div></foreignObject></g><path d="M 1684 333.5 L 1684 425.5 L 1562.87 425.5" fill="none" stroke="#ff8000" stroke-miterlimit="10" pointer-events="none"/><path d="M 1557.62 425.5 L 1564.62 422 L 1562.87 425.5 L 1564.62 429 Z" fill="#ff8000" stroke="#ff8000" stroke-miterlimit="10" pointer-events="none"/><rect x="1578" y="253.5" width="179" height="80" rx="5.6" ry="5.6" fill="#efb9aa" stroke="#d77d63" pointer-events="none"/><g transform="translate(1616.5,280.5)"><foreignObject style="overflow:visible;" pointer-events="all" width="98" height="22"><div xmlns="http://www.w3.org/1999/xhtml" style="display: inline-block; font-size: 20px; font-family: Helvetica; color: rgb(0, 0, 0); line-height: 1.2; vertical-align: top; width: 99px; white-space: nowrap; overflow-wrap: normal; font-weight: bold; text-align: center;"><div xmlns="http://www.w3.org/1999/xhtml" style="display:inline-block;text-align:inherit;text-decoration:inherit;white-space:normal;"><font style="font-size: 20px">confirm IP</font></div></div></foreignObject></g><path d="M 925 1750.5 L 1126.5 1750.5 L 1126.5 1753 L 1325.13 1753" fill="none" stroke="#ff8000" stroke-miterlimit="10" pointer-events="none"/><path d="M 1330.38 1753 L 1323.38 1756.5 L 1325.13 1753 L 1323.38 1749.5 Z" fill="#ff8000" stroke="#ff8000" stroke-miterlimit="10" pointer-events="none"/><rect x="746" y="1711.5" width="179" height="80" rx="5.6" ry="5.6" fill="#c5c4b0" stroke="#99976b" pointer-events="none"/><g transform="translate(764.5,1738.5)"><foreignObject style="overflow:visible;" pointer-events="all" width="138" height="22"><div xmlns="http://www.w3.org/1999/xhtml" style="display: inline-block; font-size: 20px; font-family: Helvetica; color: rgb(0, 0, 0); line-height: 1.2; vertical-align: top; width: 139px; white-space: nowrap; overflow-wrap: normal; font-weight: bold; text-align: center;"><div xmlns="http://www.w3.org/1999/xhtml" style="display:inline-block;text-align:inherit;text-decoration:inherit;white-space:normal;"><font style="font-size: 20px">error message</font></div></div></foreignObject></g><path d="M 1506 293.5 L 1571.63 293.5" fill="none" stroke="#ff8000" stroke-miterlimit="10" pointer-events="none"/><path d="M 1576.88 293.5 L 1569.88 297 L 1571.63 293.5 L 1569.88 290 Z" fill="#ff8000" stroke="#ff8000" stroke-miterlimit="10" pointer-events="none"/><rect x="1327" y="253.5" width="179" height="80" rx="5.6" ry="5.6" fill="#d4aef9" stroke="#9f7ac3" pointer-events="none"/><g transform="translate(1367.5,280.5)"><foreignObject style="overflow:visible;" pointer-events="all" width="94" height="22"><div xmlns="http://www.w3.org/1999/xhtml" style="display: inline-block; font-size: 20px; font-family: Helvetica; color: rgb(0, 0, 0); line-height: 1.2; vertical-align: top; width: 95px; white-space: nowrap; overflow-wrap: normal; font-weight: bold; text-align: center;"><div xmlns="http://www.w3.org/1999/xhtml" style="display:inline-block;text-align:inherit;text-decoration:inherit;white-space:normal;"><font style="font-size: 20px">change IP</font></div></div></foreignObject></g><path d="M 1405.5 589.5 L 1405.5 657.63" fill="none" stroke="#ff8000" stroke-miterlimit="10" pointer-events="none"/><path d="M 1405.5 662.88 L 1402 655.88 L 1405.5 657.63 L 1409 655.88 Z" fill="#ff8000" stroke="#ff8000" stroke-miterlimit="10" pointer-events="none"/><ellipse cx="1405.5" cy="559.5" rx="30" ry="30" fill="#98e1f9" stroke="#388aa6" pointer-events="none"/><g transform="translate(1387.5,546.5)"><foreignObject style="overflow:visible;" pointer-events="all" width="33" height="22"><div xmlns="http://www.w3.org/1999/xhtml" style="display: inline-block; font-size: 20px; font-family: Helvetica; color: rgb(0, 0, 0); line-height: 1.2; vertical-align: top; width: 34px; white-space: nowrap; overflow-wrap: normal; font-weight: bold; text-align: center;"><div xmlns="http://www.w3.org/1999/xhtml" style="display:inline-block;text-align:inherit;text-decoration:inherit;white-space:normal;"><font style="font-size: 20px">yes</font></div></div></foreignObject></g><path d="M 1089 423 L 326.5 423 L 326.5 1748 L 746.5 1748 L 746.5 1749.13" fill="none" stroke="#ff8000" stroke-miterlimit="10" pointer-events="none"/><path d="M 746.5 1754.38 L 743 1747.38 L 746.5 1749.13 L 750 1747.38 Z" fill="#ff8000" stroke="#ff8000" stroke-miterlimit="10" pointer-events="none"/><ellipse cx="1119" cy="422" rx="30" ry="30" fill="#98e1f9" stroke="#388aa6" pointer-events="none"/><g transform="translate(1105.5,409.5)"><foreignObject style="overflow:visible;" pointer-events="all" width="24" height="22"><div xmlns="http://www.w3.org/1999/xhtml" style="display: inline-block; font-size: 20px; font-family: Helvetica; color: rgb(0, 0, 0); line-height: 1.2; vertical-align: top; width: 25px; white-space: nowrap; overflow-wrap: normal; font-weight: bold; text-align: center;"><div xmlns="http://www.w3.org/1999/xhtml" style="display:inline-block;text-align:inherit;text-decoration:inherit;white-space:normal;"><font style="font-size: 20px">no</font></div></div></foreignObject></g><path d="M 1406.5 1271.5 L 1406.5 1415.5 L 1182.87 1415.5" fill="none" stroke="#ff8000" stroke-miterlimit="10" pointer-events="none"/><path d="M 1177.62 1415.5 L 1184.62 1412 L 1182.87 1415.5 L 1184.62 1419 Z" fill="#ff8000" stroke="#ff8000" stroke-miterlimit="10" pointer-events="none"/><ellipse cx="1405.5" cy="1241.5" rx="30" ry="30" fill="#98e1f9" stroke="#388aa6" pointer-events="none"/><g transform="translate(1386.5,1228.5)"><foreignObject style="overflow:visible;" pointer-events="all" width="34" height="22"><div xmlns="http://www.w3.org/1999/xhtml" style="display: inline-block; font-size: 20px; font-family: Helvetica; color: rgb(0, 0, 0); line-height: 1.2; vertical-align: top; width: 35px; white-space: nowrap; overflow-wrap: normal; font-weight: bold; text-align: center;"><div xmlns="http://www.w3.org/1999/xhtml" style="display:inline-block;text-align:inherit;text-decoration:inherit;white-space:normal;">==2</div></div></foreignObject></g><path d="M 1036.5 1105 L 1036.5 1195.13" fill="none" stroke="#ff8000" stroke-miterlimit="10" pointer-events="none"/><path d="M 1036.5 1200.38 L 1033 1193.38 L 1036.5 1195.13 L 1040 1193.38 Z" fill="#ff8000" stroke="#ff8000" stroke-miterlimit="10" pointer-events="none"/><ellipse cx="1036.5" cy="1075" rx="30" ry="30" fill="#98e1f9" stroke="#388aa6" pointer-events="none"/><g transform="translate(1023.5,1062.5)"><foreignObject style="overflow:visible;" pointer-events="all" width="23" height="22"><div xmlns="http://www.w3.org/1999/xhtml" style="display: inline-block; font-size: 20px; font-family: Helvetica; color: rgb(0, 0, 0); line-height: 1.2; vertical-align: top; width: 24px; white-space: nowrap; overflow-wrap: normal; font-weight: bold; text-align: center;"><div xmlns="http://www.w3.org/1999/xhtml" style="display:inline-block;text-align:inherit;text-decoration:inherit;white-space:normal;">&gt;2</div></div></foreignObject></g><path d="M 1036.5 1281.5 L 1036.5 1328 L 1049 1328 L 1049 1365.63" fill="none" stroke="#ff8000" stroke-miterlimit="10" pointer-events="none"/><path d="M 1049 1370.88 L 1045.5 1363.88 L 1049 1365.63 L 1052.5 1363.88 Z" fill="#ff8000" stroke="#ff8000" stroke-miterlimit="10" pointer-events="none"/><rect x="947" y="1201.5" width="179" height="80" rx="5.6" ry="5.6" fill="#d4aef9" stroke="#9f7ac3" pointer-events="none"/><g transform="translate(983.5,1228.5)"><foreignObject style="overflow:visible;" pointer-events="all" width="103" height="22"><div xmlns="http://www.w3.org/1999/xhtml" style="display: inline-block; font-size: 20px; font-family: Helvetica; color: rgb(0, 0, 0); line-height: 1.2; vertical-align: top; width: 104px; white-space: nowrap; overflow-wrap: normal; font-weight: bold; text-align: center;"><div xmlns="http://www.w3.org/1999/xhtml" style="display:inline-block;text-align:inherit;text-decoration:inherit;white-space:normal;"><span style="font-size: 20px">delete files</span></div></div></foreignObject></g><path d="M 1405.5 749 L 1405.5 869.63" fill="none" stroke="#ff8000" stroke-miterlimit="10" pointer-events="none"/><path d="M 1405.5 874.88 L 1402 867.88 L 1405.5 869.63 L 1409 867.88 Z" fill="#ff8000" stroke="#ff8000" stroke-miterlimit="10" pointer-events="none"/><path d="M 1278 706.5 L 1072.87 706.5" fill="none" stroke="#ff8000" stroke-miterlimit="10" pointer-events="none"/><path d="M 1067.62 706.5 L 1074.62 703 L 1072.87 706.5 L 1074.62 710 Z" fill="#ff8000" stroke="#ff8000" stroke-miterlimit="10" pointer-events="none"/><path d="M 1376.18 749 L 1293.3 749 Q 1278 749 1283.48 741.07 L 1331.17 671.93 Q 1336.65 664 1351.95 664 L 1517.7 664 Q 1533 664 1527.52 671.93 L 1479.83 741.07 Q 1474.35 749 1459.05 749 Z" fill="#ffffff" stroke="#000000" stroke-miterlimit="10" pointer-events="none"/><g fill="#000000" font-family="Helvetica" font-weight="bold" text-anchor="middle" font-size="20px"><text x="1403.75" y="700.75">Enter the number </text><text x="1403.75" y="724.75">of updates</text></g><path d="M 1711.5 1432 L 1711.5 1485.5 L 1711.5 1496.63" fill="none" stroke="#ff8000" stroke-miterlimit="10" pointer-events="none"/><path d="M 1711.5 1501.88 L 1708 1494.88 L 1711.5 1496.63 L 1715 1494.88 Z" fill="#ff8000" stroke="#ff8000" stroke-miterlimit="10" pointer-events="none"/><rect x="1606.5" y="1352" width="179" height="80" rx="5.6" ry="5.6" fill="#ff7c9b" stroke="#b75a70" pointer-events="none"/><g transform="translate(1661.5,1379.5)"><foreignObject style="overflow:visible;" pointer-events="all" width="66" height="22"><div xmlns="http://www.w3.org/1999/xhtml" style="display: inline-block; font-size: 20px; font-family: Helvetica; color: rgb(0, 0, 0); line-height: 1.2; vertical-align: top; width: 67px; white-space: nowrap; overflow-wrap: normal; font-weight: bold; text-align: center;"><div xmlns="http://www.w3.org/1999/xhtml" style="display:inline-block;text-align:inherit;text-decoration:inherit;white-space:normal;"><span style="font-size: 20px">update</span></div></div></foreignObject></g><path d="M 1979 1527.5 L 1979 1388 L 1791.87 1388" fill="none" stroke="#ff8000" stroke-miterlimit="10" pointer-events="none"/><path d="M 1786.62 1388 L 1793.62 1384.5 L 1791.87 1388 L 1793.62 1391.5 Z" fill="#ff8000" stroke="#ff8000" stroke-miterlimit="10" pointer-events="none"/><ellipse cx="1979" cy="1557.5" rx="30" ry="30" fill="#98e1f9" stroke="#388aa6" pointer-events="none"/><g transform="translate(1965.5,1544.5)"><foreignObject style="overflow:visible;" pointer-events="all" width="24" height="22"><div xmlns="http://www.w3.org/1999/xhtml" style="display: inline-block; font-size: 20px; font-family: Helvetica; color: rgb(0, 0, 0); line-height: 1.2; vertical-align: top; width: 25px; white-space: nowrap; overflow-wrap: normal; font-weight: bold; text-align: center;"><div xmlns="http://www.w3.org/1999/xhtml" style="display:inline-block;text-align:inherit;text-decoration:inherit;white-space:normal;"><font style="font-size: 20px">no</font></div></div></foreignObject></g><path d="M 1369.6 1712.5 L 1420.4 1712.5 C 1442.54 1712.5 1460.5 1730.41 1460.5 1752.5 C 1460.5 1774.59 1442.54 1792.5 1420.4 1792.5 L 1369.6 1792.5 C 1347.46 1792.5 1329.5 1774.59 1329.5 1752.5 C 1329.5 1730.41 1347.46 1712.5 1369.6 1712.5 Z" fill="#ffdc8c" stroke="#ddab38" stroke-width="2" stroke-miterlimit="10" pointer-events="none"/><g transform="translate(1372.5,1738.5)"><foreignObject style="overflow:visible;" pointer-events="all" width="41" height="24"><div xmlns="http://www.w3.org/1999/xhtml" style="display: inline-block; font-size: 20px; font-family: Helvetica; color: rgb(0, 0, 0); line-height: 1.2; vertical-align: top; width: 42px; white-space: nowrap; overflow-wrap: normal; font-weight: bold; text-align: center;"><div xmlns="http://www.w3.org/1999/xhtml" style="display:inline-block;text-align:inherit;text-decoration:inherit;white-space:normal;"><span lang="ZH-TW" style="font-family: &quot;pmingliu&quot; , serif ; font-size: 20px"><font style="font-size: 20px">END</font></span></div></div></foreignObject></g><path d="M 1682.5 1753 L 1571.5 1753 L 1466.87 1753" fill="none" stroke="#ff8000" stroke-miterlimit="10" pointer-events="none"/><path d="M 1461.62 1753 L 1468.62 1749.5 L 1466.87 1753 L 1468.62 1756.5 Z" fill="#ff8000" stroke="#ff8000" stroke-miterlimit="10" pointer-events="none"/><ellipse cx="1712.5" cy="1752" rx="30" ry="30" fill="#98e1f9" stroke="#388aa6" transform="rotate(90,1712.5,1752)" pointer-events="none"/><g transform="translate(1694.5,1739.5)"><foreignObject style="overflow:visible;" pointer-events="all" width="33" height="22"><div xmlns="http://www.w3.org/1999/xhtml" style="display: inline-block; font-size: 20px; font-family: Helvetica; color: rgb(0, 0, 0); line-height: 1.2; vertical-align: top; width: 34px; white-space: nowrap; overflow-wrap: normal; font-weight: bold; text-align: center;"><div xmlns="http://www.w3.org/1999/xhtml" style="display:inline-block;text-align:inherit;text-decoration:inherit;white-space:normal;"><font style="font-size: 20px">yes<br/></font></div></div></foreignObject></g><path d="M 1405.5 936 L 1405.5 1014.13" fill="none" stroke="#ff8000" stroke-miterlimit="10" pointer-events="none"/><path d="M 1405.5 1019.38 L 1402 1012.38 L 1405.5 1014.13 L 1409 1012.38 Z" fill="#ff8000" stroke="#ff8000" stroke-miterlimit="10" pointer-events="none"/><ellipse cx="1405.5" cy="906" rx="30" ry="30" fill="#98e1f9" stroke="#388aa6" pointer-events="none"/><g transform="translate(1386.5,893.5)"><foreignObject style="overflow:visible;" pointer-events="all" width="34" height="22"><div xmlns="http://www.w3.org/1999/xhtml" style="display: inline-block; font-size: 20px; font-family: Helvetica; color: rgb(0, 0, 0); line-height: 1.2; vertical-align: top; width: 35px; white-space: nowrap; overflow-wrap: normal; font-weight: bold; text-align: center;"><div xmlns="http://www.w3.org/1999/xhtml" style="display:inline-block;text-align:inherit;text-decoration:inherit;white-space:normal;">==1</div></div></foreignObject></g><path d="M 1253 1075 L 1072.87 1075" fill="none" stroke="#ff8000" stroke-miterlimit="10" pointer-events="none"/><path d="M 1067.62 1075 L 1074.62 1071.5 L 1072.87 1075 L 1074.62 1078.5 Z" fill="#ff8000" stroke="#ff8000" stroke-miterlimit="10" pointer-events="none"/><path d="M 1558 1075.5 L 1614 1075.5 L 1661.13 1075.5" fill="none" stroke="#ff8000" stroke-miterlimit="10" pointer-events="none"/><path d="M 1666.38 1075.5 L 1659.38 1079 L 1661.13 1075.5 L 1659.38 1072 Z" fill="#ff8000" stroke="#ff8000" stroke-miterlimit="10" pointer-events="none"/><path d="M 1405.5 1129.5 L 1405.5 1205.13" fill="none" stroke="#ff8000" stroke-miterlimit="10" pointer-events="none"/><path d="M 1405.5 1210.38 L 1402 1203.38 L 1405.5 1205.13 L 1409 1203.38 Z" fill="#ff8000" stroke="#ff8000" stroke-miterlimit="10" pointer-events="none"/><path d="M 1405.5 1020.5 L 1558 1075 L 1405.5 1129.5 L 1253 1075 Z" fill="#91ead2" stroke="#64b19c" stroke-miterlimit="10" pointer-events="none"/><g transform="translate(1278.5,1061.5)"><foreignObject style="overflow:visible;" pointer-events="all" width="251" height="24"><div xmlns="http://www.w3.org/1999/xhtml" style="display: inline-block; font-size: 20px; font-family: Helvetica; color: rgb(0, 0, 0); line-height: 1.2; vertical-align: top; width: 252px; white-space: nowrap; overflow-wrap: normal; font-weight: bold; text-align: center;"><div xmlns="http://www.w3.org/1999/xhtml" style="display:inline-block;text-align:inherit;text-decoration:inherit;white-space:normal;"><p class="MsoNormal" style="font-size: 20px"><span style="font-family: &quot;pmingliu&quot; , serif">Determine the number of files</span><br/></p></div></div></foreignObject></g><path d="M 1865 1557 L 1906.5 1558 L 1942.63 1558" fill="none" stroke="#ff8000" stroke-miterlimit="10" pointer-events="none"/><path d="M 1947.88 1558 L 1940.88 1561.5 L 1942.63 1558 L 1940.88 1554.5 Z" fill="#ff8000" stroke="#ff8000" stroke-miterlimit="10" pointer-events="none"/><path d="M 1712.5 1611.5 L 1711.5 1668 L 1711.5 1716.63" fill="none" stroke="#ff8000" stroke-miterlimit="10" pointer-events="none"/><path d="M 1711.5 1721.88 L 1708 1714.88 L 1711.5 1716.63 L 1715 1714.88 Z" fill="#ff8000" stroke="#ff8000" stroke-miterlimit="10" pointer-events="none"/><path d="M 1712.5 1501.5 L 1865 1556 L 1712.5 1610.5 L 1560 1556 Z" fill="#91ead2" stroke="#64b19c" stroke-miterlimit="10" pointer-events="none"/><g transform="translate(1560.5,1529.5)"><foreignObject style="overflow:visible;" pointer-events="all" width="301" height="49"><div xmlns="http://www.w3.org/1999/xhtml" style="display: inline-block; font-size: 20px; font-family: Helvetica; color: rgb(0, 0, 0); line-height: 1.2; vertical-align: top; width: 301px; white-space: nowrap; overflow-wrap: normal; font-weight: bold; text-align: center;"><div xmlns="http://www.w3.org/1999/xhtml" style="display:inline-block;text-align:inherit;text-decoration:inherit;white-space:normal;"><p class="MsoNormal" style="font-size: 20px"><span style="font-family: &quot;pmingliu&quot; , serif">Whether the number of updates reaches the maximum value</span><br/></p></div></div></foreignObject></g><path d="M 1405.5 476.5 L 1405.5 523.13" fill="none" stroke="#ff8000" stroke-miterlimit="10" pointer-events="none"/><path d="M 1405.5 528.38 L 1402 521.38 L 1405.5 523.13 L 1409 521.38 Z" fill="#ff8000" stroke="#ff8000" stroke-miterlimit="10" pointer-events="none"/><path d="M 1253 423 L 1201.5 423 L 1150.37 423" fill="none" stroke="#ff8000" stroke-miterlimit="10" pointer-events="none"/><path d="M 1145.12 423 L 1152.12 419.5 L 1150.37 423 L 1152.12 426.5 Z" fill="#ff8000" stroke="#ff8000" stroke-miterlimit="10" pointer-events="none"/><path d="M 1405.5 367.5 L 1558 422 L 1405.5 476.5 L 1253 422 Z" fill="#91ead2" stroke="#64b19c" stroke-miterlimit="10" pointer-events="none"/><g transform="translate(1296.5,408.5)"><foreignObject style="overflow:visible;" pointer-events="all" width="214" height="24"><div xmlns="http://www.w3.org/1999/xhtml" style="display: inline-block; font-size: 20px; font-family: Helvetica; color: rgb(0, 0, 0); line-height: 1.2; vertical-align: top; width: 215px; white-space: nowrap; overflow-wrap: normal; font-weight: bold; text-align: center;"><div xmlns="http://www.w3.org/1999/xhtml" style="display:inline-block;text-align:inherit;text-decoration:inherit;white-space:normal;"><p class="MsoNormal" style="font-size: 20px"><span style="font-family: &quot;pmingliu&quot; , serif">Determine machine status</span><br/></p></div></div></foreignObject></g><path d="M 1553.5 55.5 L 1576.5 55.5 L 1593.13 55.5" fill="none" stroke="#ff8000" stroke-miterlimit="10" pointer-events="none"/><path d="M 1598.38 55.5 L 1591.38 59 L 1593.13 55.5 L 1591.38 52 Z" fill="#ff8000" stroke="#ff8000" stroke-miterlimit="10" pointer-events="none"/><path d="M 1401.5 109 L 1401.5 128 L 1401.5 123 L 1401.5 137.63" fill="none" stroke="#ff8000" stroke-miterlimit="10" pointer-events="none"/><path d="M 1401.5 142.88 L 1398 135.88 L 1401.5 137.63 L 1405 135.88 Z" fill="#ff8000" stroke="#ff8000" stroke-miterlimit="10" pointer-events="none"/><path d="M 1401 0 L 1553.5 54.5 L 1401 109 L 1248.5 54.5 Z" fill="#91ead2" stroke="#64b19c" stroke-miterlimit="10" pointer-events="none"/><g transform="translate(1351.5,40.5)"><foreignObject style="overflow:visible;" pointer-events="all" width="96" height="24"><div xmlns="http://www.w3.org/1999/xhtml" style="display: inline-block; font-size: 20px; font-family: Helvetica; color: rgb(0, 0, 0); line-height: 1.2; vertical-align: top; width: 97px; white-space: nowrap; overflow-wrap: normal; font-weight: bold; text-align: center;"><div xmlns="http://www.w3.org/1999/xhtml" style="display:inline-block;text-align:inherit;text-decoration:inherit;white-space:normal;"><p class="MsoNormal" style="font-size: 20px"><span style="font-family: &quot;pmingliu&quot; , serif">continue IP</span><br/></p></div></div></foreignObject></g><path d="M 1401.5 204 L 1401.5 240.5 L 1401.5 247.13" fill="none" stroke="#ff8000" stroke-miterlimit="10" pointer-events="none"/><path d="M 1401.5 252.38 L 1398 245.38 L 1401.5 247.13 L 1405 245.38 Z" fill="#ff8000" stroke="#ff8000" stroke-miterlimit="10" pointer-events="none"/><ellipse cx="1401" cy="174" rx="30" ry="30" fill="#98e1f9" stroke="#388aa6" pointer-events="none"/><g transform="translate(1387.5,161.5)"><foreignObject style="overflow:visible;" pointer-events="all" width="24" height="22"><div xmlns="http://www.w3.org/1999/xhtml" style="display: inline-block; font-size: 20px; font-family: Helvetica; color: rgb(0, 0, 0); line-height: 1.2; vertical-align: top; width: 25px; white-space: nowrap; overflow-wrap: normal; font-weight: bold; text-align: center;"><div xmlns="http://www.w3.org/1999/xhtml" style="display:inline-block;text-align:inherit;text-decoration:inherit;white-space:normal;"><font style="font-size: 20px">no</font></div></div></foreignObject></g><path d="M 535.5 55.5 L 574 55.5 L 607.63 55.5" fill="none" stroke="#000000" stroke-miterlimit="10" pointer-events="none"/><path d="M 612.88 55.5 L 605.88 59 L 607.63 55.5 L 605.88 52 Z" fill="#000000" stroke="#000000" stroke-miterlimit="10" pointer-events="none"/><path d="M 383 109 L 383 179.63" fill="none" stroke="#000000" stroke-miterlimit="10" pointer-events="none"/><path d="M 383 184.88 L 379.5 177.88 L 383 179.63 L 386.5 177.88 Z" fill="#000000" stroke="#000000" stroke-miterlimit="10" pointer-events="none"/><path d="M 383 0 L 535.5 54.5 L 383 109 L 230.5 54.5 Z" fill="#91ead2" stroke="#64b19c" stroke-miterlimit="10" pointer-events="none"/><g transform="translate(297.5,40.5)"><foreignObject style="overflow:visible;" pointer-events="all" width="168" height="24"><div xmlns="http://www.w3.org/1999/xhtml" style="display: inline-block; font-size: 20px; font-family: Helvetica; color: rgb(0, 0, 0); line-height: 1.2; vertical-align: top; width: 169px; white-space: nowrap; overflow-wrap: normal; font-weight: bold; text-align: center;"><div xmlns="http://www.w3.org/1999/xhtml" style="display:inline-block;text-align:inherit;text-decoration:inherit;white-space:normal;"><font face="pmingliu, serif">set bmc   anchor file?<br/></font></div></div></foreignObject></g><path d="M 644 84.5 L 644 123 L 644 155.13" fill="none" stroke="#000000" stroke-miterlimit="10" pointer-events="none"/><path d="M 644 160.38 L 640.5 153.38 L 644 155.13 L 647.5 153.38 Z" fill="#000000" stroke="#000000" stroke-miterlimit="10" pointer-events="none"/><ellipse cx="644" cy="54.5" rx="30" ry="30" fill="#98e1f9" stroke="#388aa6" pointer-events="none"/><g transform="translate(630.5,41.5)"><foreignObject style="overflow:visible;" pointer-events="all" width="24" height="22"><div xmlns="http://www.w3.org/1999/xhtml" style="display: inline-block; font-size: 20px; font-family: Helvetica; color: rgb(0, 0, 0); line-height: 1.2; vertical-align: top; width: 25px; white-space: nowrap; overflow-wrap: normal; font-weight: bold; text-align: center;"><div xmlns="http://www.w3.org/1999/xhtml" style="display:inline-block;text-align:inherit;text-decoration:inherit;white-space:normal;"><font style="font-size: 20px">no</font></div></div></foreignObject></g><path d="M 492.5 215.5 L 454 215.5 L 419.37 215.5" fill="none" stroke="#000000" stroke-miterlimit="10" pointer-events="none"/><path d="M 414.12 215.5 L 421.12 212 L 419.37 215.5 L 421.12 219 Z" fill="#000000" stroke="#000000" stroke-miterlimit="10" pointer-events="none"/><path d="M 797.5 215.5 L 909 215.5 L 909 91.87" fill="none" stroke="#000000" stroke-miterlimit="10" pointer-events="none"/><path d="M 909 86.62 L 912.5 93.62 L 909 91.87 L 905.5 93.62 Z" fill="#000000" stroke="#000000" stroke-miterlimit="10" pointer-events="none"/><path d="M 645 161.5 L 797.5 216 L 645 270.5 L 492.5 216 Z" fill="#91ead2" stroke="#64b19c" stroke-miterlimit="10" pointer-events="none"/><g transform="translate(564.5,202.5)"><foreignObject style="overflow:visible;" pointer-events="all" width="158" height="24"><div xmlns="http://www.w3.org/1999/xhtml" style="display: inline-block; font-size: 20px; font-family: Helvetica; color: rgb(0, 0, 0); line-height: 1.2; vertical-align: top; width: 159px; white-space: nowrap; overflow-wrap: normal; font-weight: bold; text-align: center;"><div xmlns="http://www.w3.org/1999/xhtml" style="display:inline-block;text-align:inherit;text-decoration:inherit;white-space:normal;"><font face="pmingliu, serif">if   bmc    file default<br/></font></div></div></foreignObject></g><path d="M 472.5 340.5 L 1039 340.5 L 1039 53 L 1242.13 53" fill="none" stroke="#000000" stroke-miterlimit="10" pointer-events="none"/><path d="M 1247.38 53 L 1240.38 56.5 L 1242.13 53 L 1240.38 49.5 Z" fill="#000000" stroke="#000000" stroke-miterlimit="10" pointer-events="none"/><rect x="293.5" y="327" width="179" height="80" rx="5.6" ry="5.6" fill="#d4aef9" stroke="#9f7ac3" pointer-events="none"/><g transform="translate(305.5,354.5)"><foreignObject style="overflow:visible;" pointer-events="all" width="151" height="22"><div xmlns="http://www.w3.org/1999/xhtml" style="display: inline-block; font-size: 20px; font-family: Helvetica; color: rgb(0, 0, 0); line-height: 1.2; vertical-align: top; width: 152px; white-space: nowrap; overflow-wrap: normal; font-weight: bold; text-align: center;"><div xmlns="http://www.w3.org/1999/xhtml" style="display:inline-block;text-align:inherit;text-decoration:inherit;white-space:normal;"><font style="font-size: 20px">change bmc file</font></div></div></foreignObject></g><path d="M 383 246 L 383 320.63" fill="none" stroke="#000000" stroke-miterlimit="10" pointer-events="none"/><path d="M 383 325.88 L 379.5 318.88 L 383 320.63 L 386.5 318.88 Z" fill="#000000" stroke="#000000" stroke-miterlimit="10" pointer-events="none"/><ellipse cx="383" cy="216" rx="30" ry="30" fill="#98e1f9" stroke="#388aa6" pointer-events="none"/><g transform="translate(364.5,203.5)"><foreignObject style="overflow:visible;" pointer-events="all" width="33" height="22"><div xmlns="http://www.w3.org/1999/xhtml" style="display: inline-block; font-size: 20px; font-family: Helvetica; color: rgb(0, 0, 0); line-height: 1.2; vertical-align: top; width: 34px; white-space: nowrap; overflow-wrap: normal; font-weight: bold; text-align: center;"><div xmlns="http://www.w3.org/1999/xhtml" style="display:inline-block;text-align:inherit;text-decoration:inherit;white-space:normal;"><font style="font-size: 20px">yes</font></div></div></foreignObject></g><path d="M 935.5 55.5 L 1091.5 55.5 L 1242.13 55.5" fill="none" stroke="#000000" stroke-miterlimit="10" pointer-events="none"/><path d="M 1247.38 55.5 L 1240.38 59 L 1242.13 55.5 L 1240.38 52 Z" fill="#000000" stroke="#000000" stroke-miterlimit="10" pointer-events="none"/><ellipse cx="905.5" cy="54.5" rx="30" ry="30" fill="#98e1f9" stroke="#388aa6" pointer-events="none"/><g transform="translate(891.5,41.5)"><foreignObject style="overflow:visible;" pointer-events="all" width="24" height="22"><div xmlns="http://www.w3.org/1999/xhtml" style="display: inline-block; font-size: 20px; font-family: Helvetica; color: rgb(0, 0, 0); line-height: 1.2; vertical-align: top; width: 25px; white-space: nowrap; overflow-wrap: normal; font-weight: bold; text-align: center;"><div xmlns="http://www.w3.org/1999/xhtml" style="display:inline-block;text-align:inherit;text-decoration:inherit;white-space:normal;"><font style="font-size: 20px">no</font></div></div></foreignObject></g><path d="M 1006.5 705.5 L 724 705.5 L 724 1014.13" fill="none" stroke="#ff8000" stroke-miterlimit="10" pointer-events="none"/><path d="M 724 1019.38 L 720.5 1012.38 L 724 1014.13 L 727.5 1012.38 Z" fill="#ff8000" stroke="#ff8000" stroke-miterlimit="10" pointer-events="none"/><ellipse cx="1036.5" cy="706.5" rx="30" ry="30" fill="#98e1f9" stroke="#388aa6" pointer-events="none"/><g transform="translate(1017.5,693.5)"><foreignObject style="overflow:visible;" pointer-events="all" width="34" height="22"><div xmlns="http://www.w3.org/1999/xhtml" style="display: inline-block; font-size: 20px; font-family: Helvetica; color: rgb(0, 0, 0); line-height: 1.2; vertical-align: top; width: 35px; white-space: nowrap; overflow-wrap: normal; font-weight: bold; text-align: center;"><div xmlns="http://www.w3.org/1999/xhtml" style="display:inline-block;text-align:inherit;text-decoration:inherit;white-space:normal;">&gt;=2</div></div></foreignObject></g><path d="M 875.5 1075 L 1000.13 1075" fill="none" stroke="#ff8000" stroke-miterlimit="10" pointer-events="none"/><path d="M 1005.38 1075 L 998.38 1078.5 L 1000.13 1075 L 998.38 1071.5 Z" fill="#ff8000" stroke="#ff8000" stroke-miterlimit="10" pointer-events="none"/><path d="M 570.5 1075.5 L 521.5 1075.5 L 478.87 1075.5" fill="none" stroke="#ff8000" stroke-miterlimit="10" pointer-events="none"/><path d="M 473.62 1075.5 L 480.62 1072 L 478.87 1075.5 L 480.62 1079 Z" fill="#ff8000" stroke="#ff8000" stroke-miterlimit="10" pointer-events="none"/><path d="M 723 1129.5 L 723 1205.13" fill="none" stroke="#ff8000" stroke-miterlimit="10" pointer-events="none"/><path d="M 723 1210.38 L 719.5 1203.38 L 723 1205.13 L 726.5 1203.38 Z" fill="#ff8000" stroke="#ff8000" stroke-miterlimit="10" pointer-events="none"/><path d="M 723 1020.5 L 875.5 1075 L 723 1129.5 L 570.5 1075 Z" fill="#91ead2" stroke="#64b19c" stroke-miterlimit="10" pointer-events="none"/><g transform="translate(595.5,1061.5)"><foreignObject style="overflow:visible;" pointer-events="all" width="251" height="24"><div xmlns="http://www.w3.org/1999/xhtml" style="display: inline-block; font-size: 20px; font-family: Helvetica; color: rgb(0, 0, 0); line-height: 1.2; vertical-align: top; width: 252px; white-space: nowrap; overflow-wrap: normal; font-weight: bold; text-align: center;"><div xmlns="http://www.w3.org/1999/xhtml" style="display:inline-block;text-align:inherit;text-decoration:inherit;white-space:normal;"><p class="MsoNormal" style="font-size: 20px"><span style="font-family: &quot;pmingliu&quot; , serif">Determine the number of files</span><br/></p></div></div></foreignObject></g><path d="M 1696.5 1105.5 L 1696.5 1228 L 1696.5 1345.63" fill="none" stroke="#ff8000" stroke-miterlimit="10" pointer-events="none"/><path d="M 1696.5 1350.88 L 1693 1343.88 L 1696.5 1345.63 L 1700 1343.88 Z" fill="#ff8000" stroke="#ff8000" stroke-miterlimit="10" pointer-events="none"/><ellipse cx="1697.5" cy="1075.5" rx="30" ry="30" fill="#98e1f9" stroke="#388aa6" pointer-events="none"/><g transform="translate(1678.5,1062.5)"><foreignObject style="overflow:visible;" pointer-events="all" width="34" height="22"><div xmlns="http://www.w3.org/1999/xhtml" style="display: inline-block; font-size: 20px; font-family: Helvetica; color: rgb(0, 0, 0); line-height: 1.2; vertical-align: top; width: 35px; white-space: nowrap; overflow-wrap: normal; font-weight: bold; text-align: center;"><div xmlns="http://www.w3.org/1999/xhtml" style="display:inline-block;text-align:inherit;text-decoration:inherit;white-space:normal;">==1</div></div></foreignObject></g><path d="M 444 1105.5 L 444 1670.5 L 836.5 1670.5 L 836.5 1705.13" fill="none" stroke="#ff8000" stroke-miterlimit="10" pointer-events="none"/><path d="M 836.5 1710.38 L 833 1703.38 L 836.5 1705.13 L 840 1703.38 Z" fill="#ff8000" stroke="#ff8000" stroke-miterlimit="10" pointer-events="none"/><ellipse cx="442.5" cy="1075.5" rx="30" ry="30" fill="#98e1f9" stroke="#388aa6" pointer-events="none"/><g transform="translate(423.5,1062.5)"><foreignObject style="overflow:visible;" pointer-events="all" width="34" height="22"><div xmlns="http://www.w3.org/1999/xhtml" style="display: inline-block; font-size: 20px; font-family: Helvetica; color: rgb(0, 0, 0); line-height: 1.2; vertical-align: top; width: 35px; white-space: nowrap; overflow-wrap: normal; font-weight: bold; text-align: center;"><div xmlns="http://www.w3.org/1999/xhtml" style="display:inline-block;text-align:inherit;text-decoration:inherit;white-space:normal;">==1</div></div></foreignObject></g><path d="M 724 1271.5 L 724 1478 L 1034 1478 L 1034 1464.37" fill="none" stroke="#ff8000" stroke-miterlimit="10" pointer-events="none"/><path d="M 1034 1459.12 L 1037.5 1466.12 L 1034 1464.37 L 1030.5 1466.12 Z" fill="#ff8000" stroke="#ff8000" stroke-miterlimit="10" pointer-events="none"/><ellipse cx="723" cy="1241.5" rx="30" ry="30" fill="#98e1f9" stroke="#388aa6" pointer-events="none"/><g transform="translate(704.5,1228.5)"><foreignObject style="overflow:visible;" pointer-events="all" width="34" height="22"><div xmlns="http://www.w3.org/1999/xhtml" style="display: inline-block; font-size: 20px; font-family: Helvetica; color: rgb(0, 0, 0); line-height: 1.2; vertical-align: top; width: 35px; white-space: nowrap; overflow-wrap: normal; font-weight: bold; text-align: center;"><div xmlns="http://www.w3.org/1999/xhtml" style="display:inline-block;text-align:inherit;text-decoration:inherit;white-space:normal;">==2</div></div></foreignObject></g><path d="M 1049 1457 L 1049 1475.5 L 1646.5 1475.5 L 1646.5 1438.37" fill="none" stroke="#ff33ff" stroke-miterlimit="10" pointer-events="none"/><path d="M 1646.5 1433.12 L 1650 1440.12 L 1646.5 1438.37 L 1643 1440.12 Z" fill="#ff33ff" stroke="#ff33ff" stroke-miterlimit="10" pointer-events="none"/><path d="M 1019.68 1457 L 936.8 1457 Q 921.5 1457 926.98 1449.07 L 974.67 1379.93 Q 980.15 1372 995.45 1372 L 1161.2 1372 Q 1176.5 1372 1171.02 1379.93 L 1123.33 1449.07 Q 1117.85 1457 1102.55 1457 Z" fill="#ffffff" stroke="#000000" stroke-miterlimit="10" pointer-events="none"/><g fill="#000000" font-family="Helvetica" font-weight="bold" text-anchor="middle" font-size="20px"><text x="1047.25" y="1408.75">write</text><text x="1047.25" y="1432.75"> the update file</text></g></g></svg>